<svg xmlns="http://www.w3.org/2000/svg" baseProfile="tiny" viewBox="0 0 500 500"><path fill="grey" d="M406 94c-41.7-41.6-97-64.5-156-64.5S135.7 52.5 94 94c-41.6 41.7-64.5 97-64.5 156s23 114.3 64.6 156 97 64.5 156 64.5 115-23 156-64.6 65-97 65-156-23-115-64-156zm43 142l-109.4-9 90.3-63c10 22 17 46.6 19 72.3zm-21-75.8l-94.6 66-35.6-3 15.4-33 104-48.8c4 6 7.6 12.3 11 18.8zm-141.8 78.2l-5.6-4-.8-8.7 12 1-5.6 11.7zm1.6 6l9.8 6.8-10.5 7.4-3-6.3 4-8zm-8.3-22.7l-1.3-15 29.3-13.8-14 30-14-2zm-1.2 48l7-5 5.2 10.6-12.8 1 .6-6.7zm14 9.5l13.8 29.3-30-14 2-14 15-1.3zm-3.5-17l12.3-8.6 27 18.6-33 2.8-6-12.8zm12.3-13.4l-11-8 6-13.8 33 2.8-27 19zM415 138l-99 46.7 46.6-99.4c20.7 14.2 38.6 32 52.7 53zm-56-55l-48.8 104.3-32.4 15-3-36L340.2 72c6.4 3.4 12.7 7 18.7 11zM257.6 212l-6.3 3-8-3.8 7-9.8 7.3 10.5zm-5-14l18.6-26.7 2.8 33-12.8 6-8.6-12.4zm-13 11.4L226 203l3-32 19 27-8 11.6zm-2.2 3.4l-4 5.6-8.7.8 1-12 11.7 5.6zm-.6 77l8.6 12.3-18.6 27-2.8-33 12.8-6zm-13 1.7l-1.2-12.8 6.8.6 5 7-10.7 5.2zm16.6-3.4l6.3-3 8 4-7 10-7.3-10zm18 3l13.6 6-3 33-19-27 8-11zm2.2-3l4-5 8.7-1-1 12-11.7-5zM250 274c-13.3 0-24-10.7-24-24s10.7-24 24-24 24 10.7 24 24-10.7 24-24 24zm18.6-53.3l-5-7 10.7-5.2 1 12.8-6.7-.6zm68-150.4L274.2 160 265 51c25.4 2 49.6 8.7 71.6 19.3zM250 50.5c3.6 0 7.2 0 10.8.3l9.8 114.3-20.4 30-20.8-30L239 51c3.7-.2 7.3-.3 11-.3zm-15 .6l-9.2 109-62.2-89c22-10 46-17 71.4-19zm-75 21l65.3 94-3 36-33-15L141 83c6-4 12.4-7.7 19-11zm50 184l-9.8-6 10.5-7 3 7-3.8 8zm7.2 10l.8 9-12-1 5.6-11 5.6 4zM197 247l-26.7-19 33-3 6 12.4L197 246zm0 4.8l11.4 8-6.4 14-32-3 27-19zm7.5 26l14 1 1.3 15-29.3 14 14-30zm15.2-46.3l-7 5-5.2-10.7 12.8-1-.6 6.6zm-14-9.6L192 192l30 14-1.3 14-15 1.3zm-68-136l46 98-98.2-46c14-21 31.7-38 52.2-52zm-54.4 55l103 48 15 32-36 3-93-65c3.3-7 7-13 11-19zm-13 22l88.7 62-108 9c2-25 9-49 19.4-71zm-19.8 87c0-4 0-8 .4-12l113-10 29 20-30 20-112-10-1-10zm.5 14l107.4 9-88.8 62c-10.3-22-16.8-46-18.6-71zm20.4 75l93.2-65 35.6 3-15.4 33-102.6 48c-4-6-7.5-13-10.8-19zm13 22l97.8-46-46 98c-20.4-14-38-32-51.7-53zm55 54L188 312l32.4-15 3 36-65 93.4c-6.4-3-12.7-7-18.7-11zm22.5 13l61-89 10 109c-26-3-50-9-71-20zm88 20c-5 0-9 0-13-.7l-10-114 20-29.3 21 30-10 114h-9zm13-.7l9-108.3 62 90c-22 10-47 16.4-72 18zm75-20.3l-66-94 3-35.5 33 16 49 103c-6 4-13 7.7-19 11zm22-13l-46-99 99 46.7c-15 21.3-33 39-53 53zm55-55.6l-105-49-15-32.3 36-3 95 66c-4 6-7 12.4-11 18.4zm13-22l-89-63 110-9.2c-2 25.6-9 50-20 72zm-94-66l-30-20 30-20.6 114 10v10c0 4 0 8-.6 12l-115 10z"/><path d="M413.7 86.3C370 42.6 311.7 18.5 250 18.5s-120 24-163.7 67.8-67.8 102-67.8 163.7 24 120 67.8 163.7c43.7 43.7 102 67.8 163.7 67.8s120-24 163.7-67.8c43.7-43.7 67.8-102 67.8-163.7s-24-120-67.8-163.7zM250 474.5C126.2 474.5 25.5 373.8 25.5 250S126.2 25.5 250 25.5 474.5 126.2 474.5 250 373.8 474.5 250 474.5z"/><circle cx="250" cy="250" r="6"/></svg>